<svg width="300" height="49" viewBox="0 0 300 49" fill="none" xmlns="http://www.w3.org/2000/svg">
  <path d="M10.6806 15.2927C12.3798 15.2927 13.8565 15.5152 15.1107 15.9603C16.4053 16.3648 17.3358 16.7694 17.9022 17.174C19.2777 18.1045 20.1273 17.4976 20.451 15.3534H21.7254C21.6444 16.4862 21.5838 17.882 21.5433 19.5407C21.5028 21.159 21.4826 23.3234 21.4826 26.034H20.2082C20.0059 24.5371 19.6216 23.0604 19.0552 21.604C18.4888 20.1475 17.6594 18.9541 16.5671 18.0236C15.5152 17.093 14.1397 16.6278 12.4405 16.6278C11.2673 16.6278 10.2761 16.9717 9.46692 17.6594C8.65778 18.3068 8.25321 19.2575 8.25321 20.5117C8.25321 21.7254 8.61732 22.7975 9.34555 23.728C10.0738 24.618 11.0043 25.4879 12.1371 26.3375C13.3103 27.1466 14.524 28.0164 15.7782 28.9469C17.1133 29.9583 18.327 30.9698 19.4193 31.9812C20.5117 32.9522 21.3815 34.0243 22.0288 35.1975C22.6761 36.3708 22.9998 37.7665 22.9998 39.3848C22.9998 41.2054 22.4738 42.8034 21.4219 44.179C20.3701 45.514 18.9743 46.5457 17.2346 47.2739C15.5355 48.0021 13.634 48.3662 11.5302 48.3662C10.3165 48.3662 9.22418 48.2449 8.25321 48.0021C7.3227 47.7594 6.51356 47.456 5.8258 47.0918C5.29986 46.8491 4.79414 46.6266 4.30866 46.4243C3.86364 46.1816 3.43884 45.9793 3.03427 45.8175C2.6297 45.6961 2.26559 45.8377 1.94193 46.2423C1.65873 46.6468 1.43622 47.2132 1.27439 47.9414H0C0.0809137 46.6468 0.141599 45.069 0.182056 43.208C0.222513 41.347 0.242741 38.8791 0.242741 35.8044H1.51713C1.75988 37.989 2.2049 39.931 2.85221 41.6302C3.49952 43.2889 4.36935 44.6037 5.46168 45.5747C6.59448 46.5052 8.01047 46.9705 9.70966 46.9705C10.3974 46.9705 11.065 46.8289 11.7123 46.5457C12.3596 46.2625 12.8855 45.7972 13.2901 45.1499C13.7351 44.5026 13.9576 43.6732 13.9576 42.6618C13.9576 40.8817 13.371 39.405 12.1978 38.2318C11.065 37.0585 9.60852 35.7841 7.82841 34.4086C6.53379 33.3567 5.29986 32.3251 4.12661 31.3137C2.99381 30.2618 2.0633 29.129 1.33508 27.9153C0.606854 26.6611 0.242741 25.2451 0.242741 23.6673C0.242741 21.8467 0.728224 20.3094 1.69919 19.0552C2.67016 17.801 3.94455 16.8705 5.52237 16.2637C7.14064 15.6164 8.86006 15.2927 10.6806 15.2927Z" fill="black"/>
  <path d="M35.0709 47.9414C33.2504 47.9414 31.7332 47.5976 30.5195 46.9098C29.3058 46.222 28.4158 45.3117 27.8494 44.179C27.283 43.0057 26.9998 41.7313 26.9998 40.3558C26.9998 38.6161 27.3841 37.2001 28.1528 36.1078C28.9619 35.0155 29.9936 34.1254 31.2477 33.4376C32.5019 32.7499 33.8168 32.1835 35.1923 31.7384C36.6083 31.2934 37.9434 30.8686 39.1975 30.4641C40.4922 30.019 41.5238 29.5133 42.2925 28.9469C43.1016 28.3401 43.5062 27.5714 43.5062 26.6409V21.9074C43.5062 20.8555 43.3241 19.925 42.96 19.1159C42.6364 18.2663 42.1104 17.619 41.3822 17.174C40.6944 16.7289 39.7842 16.5064 38.6514 16.5064C37.8422 16.5064 37.0331 16.6278 36.2239 16.8705C35.4148 17.0728 34.7473 17.4369 34.2213 17.9629C35.3541 18.3674 36.2239 18.9945 36.8308 19.8441C37.4781 20.6533 37.8018 21.5838 37.8018 22.6356C37.8018 24.0112 37.3163 25.1035 36.3453 25.9127C35.4148 26.7218 34.3022 27.1264 33.0076 27.1264C31.5512 27.1264 30.4386 26.6813 29.6699 25.7913C28.9417 24.8608 28.5776 23.7482 28.5776 22.4536C28.5776 21.2803 28.8608 20.3094 29.4272 19.5407C30.034 18.772 30.8634 18.0438 31.9153 17.356C33.0481 16.7087 34.4034 16.203 35.9812 15.8389C37.5995 15.4748 39.3391 15.2927 41.2001 15.2927C43.0612 15.2927 44.7401 15.495 46.237 15.8996C47.7339 16.2637 48.9881 16.9514 49.9995 17.9629C50.93 18.8934 51.5369 20.0464 51.8201 21.4219C52.1033 22.757 52.2449 24.4562 52.2449 26.5195V43.0259C52.2449 44.0374 52.346 44.7453 52.5483 45.1499C52.7506 45.514 53.0945 45.6961 53.58 45.6961C53.9441 45.6961 54.288 45.5949 54.6116 45.3927C54.9757 45.1904 55.3601 44.9476 55.7646 44.6644L56.3715 45.6961C55.5219 46.4243 54.5307 46.9907 53.3979 47.3953C52.3056 47.7594 51.0716 47.9414 49.6961 47.9414C48.1992 47.9414 47.0057 47.7392 46.1157 47.3346C45.2256 46.8896 44.5783 46.3029 44.1737 45.5747C43.8096 44.8465 43.6276 43.9969 43.6276 43.0259C42.6566 44.5633 41.4833 45.777 40.1078 46.6671C38.7323 47.5166 37.0533 47.9414 35.0709 47.9414ZM39.3796 44.0576C40.1887 44.0576 40.917 43.8755 41.5643 43.5114C42.252 43.1068 42.8993 42.4595 43.5062 41.5695V29.129C43.1421 29.7358 42.6364 30.282 41.9891 30.7675C41.3417 31.253 40.654 31.7587 39.9258 32.2846C39.1975 32.7701 38.4895 33.3163 37.8018 33.9231C37.1545 34.53 36.6285 35.2784 36.2239 36.1685C35.8194 37.0585 35.6171 38.1306 35.6171 39.3848C35.6171 40.9626 35.961 42.1359 36.6487 42.9046C37.3365 43.6732 38.2468 44.0576 39.3796 44.0576Z" fill="black"/>
  <path d="M88.3271 15.4748V40.9019C88.3271 42.7225 88.6103 44.0778 89.1767 44.9679C89.7431 45.8175 90.7545 46.2423 92.2109 46.2423V47.5166C90.9568 47.3953 89.7026 47.3346 88.4485 47.3346C86.7493 47.3346 85.1714 47.3953 83.715 47.5166C82.2585 47.638 80.883 47.8605 79.5884 48.1842V42.7225C78.6174 44.7453 77.2621 46.2018 75.5225 47.0918C73.8233 47.9414 71.9218 48.3662 69.818 48.3662C68.1189 48.3662 66.7433 48.1437 65.6914 47.6987C64.6396 47.2537 63.8102 46.6873 63.2033 45.9995C62.5156 45.2308 62.0301 44.2194 61.7469 42.9652C61.4637 41.7111 61.3221 40.0928 61.3221 38.1104V22.757C61.3221 20.9365 61.0389 19.6014 60.4725 18.7518C59.9466 17.8617 58.9351 17.4167 57.4382 17.4167V16.1423C58.7328 16.2637 59.987 16.3244 61.2007 16.3244C62.8999 16.3244 64.4777 16.2637 65.9342 16.1423C67.4311 15.9805 68.8066 15.758 70.0608 15.4748V40.5985C70.0608 41.6099 70.1417 42.5 70.3035 43.2687C70.5058 44.0374 70.8699 44.6442 71.3959 45.0892C71.9218 45.4938 72.6905 45.6961 73.7019 45.6961C74.7942 45.6961 75.7652 45.3927 76.6148 44.7858C77.5049 44.1789 78.2129 43.3496 78.7388 42.2977C79.3052 41.2054 79.5884 39.9917 79.5884 38.6566V22.757C79.5884 20.9365 79.3052 19.6014 78.7388 18.7518C78.2129 17.8617 77.2014 17.4167 75.7045 17.4167V16.1423C76.9991 16.2637 78.2533 16.3244 79.467 16.3244C81.1662 16.3244 82.744 16.2637 84.2005 16.1423C85.6974 15.9805 87.0729 15.758 88.3271 15.4748Z" fill="black"/>
  <path d="M124.765 0V40.8413C124.765 42.6618 125.049 44.0171 125.615 44.9072C126.181 45.7568 127.193 46.1816 128.649 46.1816V47.456C127.395 47.3346 126.141 47.2739 124.887 47.2739C123.188 47.2739 121.589 47.3346 120.093 47.456C118.636 47.5773 117.281 47.7998 116.027 48.1235V7.28224C116.027 5.46169 115.743 4.12661 115.177 3.27701C114.651 2.38696 113.64 1.94193 112.143 1.94193V0.667541C113.437 0.78891 114.692 0.849595 115.905 0.849595C117.564 0.849595 119.142 0.78891 120.639 0.667541C122.136 0.505713 123.511 0.2832 124.765 0ZM109.291 15.2927C111.071 15.2927 112.628 15.5961 113.963 16.203C115.339 16.7694 116.411 17.7404 117.18 19.1159L116.451 19.7834C115.925 18.8125 115.217 18.1247 114.327 17.7201C113.478 17.2751 112.568 17.0526 111.597 17.0526C109.533 17.0526 107.895 18.2663 106.681 20.6937C105.467 23.0807 104.881 26.7825 104.921 31.7991C104.921 35.238 105.144 37.989 105.589 40.0523C106.074 42.0752 106.742 43.5316 107.591 44.4217C108.481 45.3117 109.493 45.7568 110.626 45.7568C112.001 45.7568 113.235 45.2106 114.327 44.1183C115.42 43.0259 116.006 41.5493 116.087 39.6882L116.391 41.8122C115.784 43.9564 114.793 45.5949 113.417 46.7277C112.082 47.8201 110.322 48.3662 108.138 48.3662C105.751 48.3662 103.606 47.7796 101.705 46.6064C99.8439 45.4331 98.3874 43.6328 97.3355 41.2054C96.2837 38.7375 95.7577 35.5616 95.7577 31.6778C95.7577 27.9962 96.3443 24.9619 97.5176 22.575C98.6908 20.1475 100.289 18.327 102.312 17.1133C104.375 15.8996 106.701 15.2927 109.291 15.2927Z" fill="black"/>
  <path d="M139.066 0.485484C140.765 0.485484 142.1 0.910282 143.071 1.75988C144.083 2.56902 144.589 3.70181 144.589 5.15826C144.589 6.61471 144.083 7.76773 143.071 8.61732C142.1 9.42646 140.765 9.83103 139.066 9.83103C137.367 9.83103 136.012 9.42646 135 8.61732C134.029 7.76773 133.544 6.61471 133.544 5.15826C133.544 3.70181 134.029 2.56902 135 1.75988C136.012 0.910282 137.367 0.485484 139.066 0.485484ZM143.8 15.4748V41.8729C143.8 43.5721 144.083 44.7251 144.649 45.332C145.256 45.9388 146.268 46.2423 147.684 46.2423V47.5166C146.955 47.4762 145.823 47.4357 144.285 47.3953C142.748 47.3144 141.19 47.2739 139.612 47.2739C138.035 47.2739 136.437 47.3144 134.818 47.3953C133.2 47.4357 131.986 47.4762 131.177 47.5166V46.2423C132.593 46.2423 133.584 45.9388 134.151 45.332C134.758 44.7251 135.061 43.5721 135.061 41.8729V22.757C135.061 20.9365 134.778 19.6014 134.211 18.7518C133.685 17.8617 132.674 17.4167 131.177 17.4167V16.1423C132.472 16.2637 133.726 16.3244 134.94 16.3244C136.639 16.3244 138.217 16.2637 139.673 16.1423C141.17 15.9805 142.546 15.758 143.8 15.4748Z" fill="black"/>
  <path d="M172.348 15.2927C174.047 15.2927 175.423 15.5152 176.474 15.9603C177.526 16.3648 178.376 16.9312 179.023 17.6594C179.671 18.4281 180.136 19.4395 180.419 20.6937C180.702 21.9074 180.844 23.5257 180.844 25.5485V41.8729C180.844 43.5721 181.107 44.7251 181.633 45.332C182.159 45.9388 183.069 46.2423 184.364 46.2423V47.5166C183.635 47.4762 182.523 47.4357 181.026 47.3953C179.569 47.3144 178.133 47.2739 176.717 47.2739C175.261 47.2739 173.825 47.3144 172.409 47.3953C170.993 47.4357 169.92 47.4762 169.192 47.5166V46.2423C170.285 46.2423 171.033 45.9388 171.438 45.332C171.883 44.7251 172.105 43.5721 172.105 41.8729V22.9998C172.105 21.9883 172.024 21.1185 171.862 20.3903C171.701 19.6216 171.377 19.035 170.891 18.6304C170.446 18.1854 169.759 17.9629 168.828 17.9629C167.776 17.9629 166.805 18.2663 165.915 18.8732C165.025 19.48 164.297 20.3296 163.731 21.4219C163.205 22.4738 162.942 23.6673 162.942 25.0024V41.8729C162.942 43.5721 163.164 44.7251 163.609 45.332C164.054 45.9388 164.803 46.2423 165.855 46.2423V47.5166C165.207 47.4762 164.196 47.4357 162.82 47.3953C161.485 47.3144 160.11 47.2739 158.694 47.2739C157.156 47.2739 155.578 47.3144 153.96 47.3953C152.342 47.4357 151.128 47.4762 150.319 47.5166V46.2423C151.735 46.2423 152.726 45.9388 153.293 45.332C153.9 44.7251 154.203 43.5721 154.203 41.8729V22.757C154.203 20.9365 153.92 19.6014 153.353 18.7518C152.827 17.8617 151.816 17.4167 150.319 17.4167V16.1423C151.614 16.2637 152.868 16.3244 154.082 16.3244C155.781 16.3244 157.359 16.2637 158.815 16.1423C160.312 15.9805 161.687 15.758 162.942 15.4748V20.9365C163.913 18.9136 165.227 17.4774 166.886 16.6278C168.545 15.7377 170.365 15.2927 172.348 15.2927ZM190.614 15.2927C192.313 15.2927 193.689 15.5152 194.741 15.9603C195.793 16.3648 196.642 16.9312 197.29 17.6594C197.937 18.4281 198.402 19.4395 198.685 20.6937C198.969 21.9074 199.11 23.5257 199.11 25.5485V41.8729C199.11 43.5721 199.393 44.7251 199.96 45.332C200.567 45.9388 201.578 46.2423 202.994 46.2423V47.5166C202.225 47.4762 201.072 47.4357 199.535 47.3953C197.998 47.3144 196.48 47.2739 194.984 47.2739C193.527 47.2739 192.091 47.3144 190.675 47.3953C189.259 47.4357 188.187 47.4762 187.459 47.5166V46.2423C188.551 46.2423 189.299 45.9388 189.704 45.332C190.149 44.7251 190.371 43.5721 190.371 41.8729V22.9998C190.371 21.9883 190.27 21.1185 190.068 20.3903C189.906 19.6216 189.562 19.035 189.036 18.6304C188.551 18.1854 187.782 17.9629 186.73 17.9629C185.678 17.9629 184.707 18.2865 183.817 18.9338C182.927 19.5811 182.199 20.451 181.633 21.5433C181.107 22.6356 180.824 23.8494 180.783 25.1844L180.48 21.4826C181.572 19.0552 183.008 17.4167 184.788 16.5671C186.609 15.7175 188.551 15.2927 190.614 15.2927Z" fill="black"/>
  <path d="M213.631 47.9414C211.81 47.9414 210.293 47.5976 209.079 46.9098C207.865 46.222 206.975 45.3117 206.409 44.179C205.843 43.0057 205.559 41.7313 205.559 40.3558C205.559 38.6161 205.944 37.2001 206.712 36.1078C207.522 35.0155 208.553 34.1254 209.807 33.4376C211.061 32.7499 212.376 32.1835 213.752 31.7384C215.168 31.2934 216.503 30.8686 217.757 30.4641C219.052 30.019 220.083 29.5133 220.852 28.9469C221.661 28.3401 222.066 27.5714 222.066 26.6409V21.9074C222.066 20.8555 221.884 19.925 221.52 19.1159C221.196 18.2663 220.67 17.619 219.942 17.174C219.254 16.7289 218.344 16.5064 217.211 16.5064C216.402 16.5064 215.593 16.6278 214.784 16.8705C213.974 17.0728 213.307 17.4369 212.781 17.9629C213.914 18.3674 214.784 18.9945 215.39 19.8441C216.038 20.6533 216.361 21.5838 216.361 22.6356C216.361 24.0112 215.876 25.1035 214.905 25.9127C213.974 26.7218 212.862 27.1264 211.567 27.1264C210.111 27.1264 208.998 26.6813 208.23 25.7913C207.501 24.8608 207.137 23.7482 207.137 22.4536C207.137 21.2803 207.42 20.3094 207.987 19.5407C208.594 18.772 209.423 18.0438 210.475 17.356C211.608 16.7087 212.963 16.203 214.541 15.8389C216.159 15.4748 217.899 15.2927 219.76 15.2927C221.621 15.2927 223.3 15.495 224.797 15.8996C226.294 16.2637 227.548 16.9514 228.559 17.9629C229.49 18.8934 230.096 20.0464 230.38 21.4219C230.663 22.757 230.804 24.4562 230.804 26.5195V43.0259C230.804 44.0374 230.906 44.7453 231.108 45.1499C231.31 45.514 231.654 45.6961 232.14 45.6961C232.504 45.6961 232.848 45.5949 233.171 45.3927C233.535 45.1904 233.92 44.9476 234.324 44.6644L234.931 45.6961C234.081 46.4243 233.09 46.9907 231.957 47.3953C230.865 47.7594 229.631 47.9414 228.256 47.9414C226.759 47.9414 225.565 47.7392 224.675 47.3346C223.785 46.8896 223.138 46.3029 222.733 45.5747C222.369 44.8465 222.187 43.9969 222.187 43.0259C221.216 44.5633 220.043 45.777 218.667 46.6671C217.292 47.5166 215.613 47.9414 213.631 47.9414ZM217.939 44.0576C218.748 44.0576 219.477 43.8755 220.124 43.5114C220.812 43.1068 221.459 42.4595 222.066 41.5695V29.129C221.702 29.7358 221.196 30.282 220.549 30.7675C219.901 31.253 219.214 31.7587 218.485 32.2846C217.757 32.7701 217.049 33.3163 216.361 33.9231C215.714 34.53 215.188 35.2784 214.784 36.1685C214.379 37.0585 214.177 38.1306 214.177 39.3848C214.177 40.9626 214.521 42.1359 215.208 42.9046C215.896 43.6732 216.806 44.0576 217.939 44.0576Z" fill="black"/>
  <path d="M266.523 0V40.8413C266.523 42.6618 266.806 44.0171 267.372 44.9072C267.939 45.7568 268.95 46.1816 270.406 46.1816V47.456C269.152 47.3346 267.898 47.2739 266.644 47.2739C264.945 47.2739 263.347 47.3346 261.85 47.456C260.393 47.5773 259.038 47.7998 257.784 48.1235V7.28224C257.784 5.46169 257.501 4.12661 256.934 3.27701C256.408 2.38696 255.397 1.94193 253.9 1.94193V0.667541C255.195 0.78891 256.449 0.849595 257.662 0.849595C259.321 0.849595 260.899 0.78891 262.396 0.667541C263.893 0.505713 265.268 0.2832 266.523 0ZM251.048 15.2927C252.828 15.2927 254.385 15.5961 255.721 16.203C257.096 16.7694 258.168 17.7404 258.937 19.1159L258.209 19.7834C257.683 18.8125 256.975 18.1247 256.085 17.7201C255.235 17.2751 254.325 17.0526 253.354 17.0526C251.291 17.0526 249.652 18.2663 248.438 20.6937C247.225 23.0807 246.638 26.7825 246.678 31.7991C246.678 35.238 246.901 37.989 247.346 40.0523C247.831 42.0752 248.499 43.5316 249.349 44.4217C250.239 45.3117 251.25 45.7568 252.383 45.7568C253.758 45.7568 254.992 45.2106 256.085 44.1183C257.177 43.0259 257.764 41.5493 257.845 39.6882L258.148 41.8122C257.541 43.9564 256.55 45.5949 255.174 46.7277C253.839 47.8201 252.079 48.3662 249.895 48.3662C247.508 48.3662 245.364 47.7796 243.462 46.6064C241.601 45.4331 240.145 43.6328 239.093 41.2054C238.041 38.7375 237.515 35.5616 237.515 31.6778C237.515 27.9962 238.102 24.9619 239.275 22.575C240.448 20.1475 242.046 18.327 244.069 17.1133C246.132 15.8996 248.459 15.2927 251.048 15.2927Z" fill="black"/>
  <path d="M288.591 15.2927C292.151 15.2927 294.943 16.3446 296.966 18.4484C298.989 20.5521 300 23.991 300 28.7649H280.035L279.913 27.6118H292.354C292.394 25.6295 292.273 23.8089 291.99 22.1502C291.706 20.451 291.261 19.0957 290.654 18.0842C290.048 17.0728 289.238 16.5671 288.227 16.5671C286.811 16.5671 285.597 17.4572 284.586 19.2373C283.615 21.0174 283.028 23.9707 282.826 28.0973L283.008 28.4614C282.968 28.9469 282.927 29.4526 282.887 29.9786C282.887 30.5045 282.887 31.0507 282.887 31.6171C282.887 34.4086 283.271 36.6742 284.04 38.4138C284.849 40.1535 285.86 41.4279 287.074 42.237C288.288 43.0057 289.522 43.39 290.776 43.39C291.625 43.39 292.495 43.2687 293.385 43.0259C294.316 42.7427 295.246 42.2572 296.177 41.5695C297.107 40.8413 297.977 39.8298 298.786 38.5352L299.879 38.8993C299.393 40.4367 298.624 41.9336 297.573 43.39C296.521 44.8465 295.186 46.04 293.567 46.9705C291.949 47.901 290.007 48.3662 287.742 48.3662C284.991 48.3662 282.563 47.7796 280.459 46.6064C278.356 45.4331 276.697 43.653 275.483 41.2661C274.31 38.8791 273.723 35.8448 273.723 32.1632C273.723 28.4008 274.35 25.2653 275.604 22.757C276.899 20.2487 278.659 18.3877 280.884 17.174C283.15 15.9198 285.719 15.2927 288.591 15.2927Z" fill="black"/>
</svg>
